<svg version="1.2" xmlns="http://www.w3.org/2000/svg" viewBox="0 0 1728 3399" width="1728" height="3399">
	<title>Group 105-svg</title>
	<style>
		.s0 { fill: none;stroke: #6538e7;stroke-width: 3 } 
		.s1 { opacity: .7;fill: none;stroke: #6538e7;stroke-width: 3 } 
		.s2 { fill: #10082e } 
		.s3 { fill: #07031e } 
	</style>
	<g id="Layer" style="opacity: .3">
		<path id="Layer" class="s0" d="m313.5 977.3c4.6 8.9 4.9 19.6 1.4 31.3-3.5 11.9-10.8 24.7-21.4 37.8-21.1 26.2-55.2 53.3-97.2 74.8-42 21.6-83.8 33.6-117.4 35.5-16.8 1-31.5-0.6-43.2-4.6-11.6-4-20.1-10.5-24.6-19.4-4.6-8.9-4.9-19.6-1.5-31.4 3.5-11.8 10.8-24.6 21.4-37.8 21.2-26.2 55.2-53.2 97.2-74.8 42-21.6 83.8-33.5 117.5-35.4 16.8-1 31.5 0.5 43.1 4.6 11.6 4 20.1 10.5 24.7 19.4z"/>
		<path id="Layer" class="s0" d="m272.3 999.8c3.1 6 3.4 13.3 1 21.5-2.4 8.1-7.5 17-14.8 26.1-14.7 18.2-38.4 37-67.6 52-29.2 15-58.2 23.3-81.6 24.6-11.7 0.7-21.8-0.4-29.9-3.1-8-2.8-13.8-7.3-16.9-13.4-3.1-6-3.3-13.3-0.9-21.5 2.4-8.1 7.4-17 14.8-26.1 14.6-18.2 38.3-37 67.5-52 29.2-15 58.3-23.3 81.6-24.6 11.7-0.7 21.9 0.4 29.9 3.2 8 2.7 13.8 7.2 16.9 13.3z"/>
		<path id="Layer" class="s0" d="m0.5 1365.5v-864c50.8-37.8 131.2-49.7 46 205.5-85.2 255.2 1.2 266.7 55 240.5 104-39 297.6-80.3 240 66.5-57.6 146.8-251.3 295.5-341 351.5z"/>
		<path id="Layer" class="s0" d="m0.5 1307v-74c37.2-21.2 122.4-63.1 166-61.5 43.6 1.6-92.5 91-166 135.5z"/>
	</g>
	<g id="Layer" style="opacity: .3">
		<path id="Layer" class="s0" d="m1203.2 2017.4c-7.9-15.3-8.5-33.6-2.5-53.7 5.9-20.1 18.3-42 36.3-64.2 35.8-44.4 93.5-90.2 164.6-126.7 71-36.5 141.8-56.8 198.8-60 28.5-1.7 53.5 0.9 73.3 7.8 19.8 6.9 34.4 18 42.3 33.3 7.8 15.4 8.4 33.7 2.5 53.8-6 20.1-18.4 41.9-36.3 64.2-35.9 44.4-93.6 90.2-164.6 126.7-71.1 36.5-141.9 56.7-198.9 60-28.5 1.6-53.5-1-73.3-7.8-19.8-6.9-34.4-18-42.2-33.4z"/>
		<path id="Layer" class="s0" d="m1272.7 1979.5c-5.4-10.6-5.8-23.2-1.7-37.1 4.2-14 12.8-29.1 25.2-44.6 25-30.8 65.1-62.7 114.5-88.1 49.4-25.4 98.7-39.5 138.3-41.7 19.8-1.2 37.1 0.6 50.9 5.4 13.7 4.8 23.7 12.4 29.1 23 5.4 10.5 5.8 23.1 1.7 37.1-4.1 13.9-12.7 29.1-25.2 44.5-24.9 30.9-65 62.7-114.4 88.1-49.5 25.4-98.7 39.5-138.3 41.8-19.8 1.1-37.2-0.7-50.9-5.4-13.7-4.8-23.7-12.5-29.2-23z"/>
		<path id="Layer" class="s0" d="m392.2 1800.3c-5.4-10.5-5.8-23.2-1.7-37.1 4.1-13.9 12.7-29.1 25.2-44.5 24.9-30.9 65.1-62.7 114.5-88.1 49.4-25.4 98.6-39.5 138.3-41.8 19.8-1.1 37.1 0.7 50.8 5.4 13.8 4.8 23.8 12.5 29.2 23 5.4 10.6 5.8 23.2 1.7 37.1-4.1 14-12.7 29.1-25.2 44.5-24.9 30.9-65 62.8-114.5 88.2-49.4 25.4-98.6 39.5-138.2 41.7-19.9 1.2-37.2-0.6-50.9-5.4-13.7-4.8-23.8-12.4-29.2-23z"/>
		<path id="Layer" class="s0" d="m433.1 1784.2c-3.5-6.8-3.8-14.9-1.1-24 2.7-9 8.3-18.9 16.4-28.9 16.3-20.2 42.5-41 74.8-57.6 32.3-16.6 64.5-25.8 90.3-27.3 13-0.7 24.2 0.5 33.1 3.6 8.9 3 15.4 8 18.9 14.8 3.4 6.7 3.7 14.8 1 23.9-2.6 9-8.2 18.9-16.4 28.9-16.2 20.2-42.4 41-74.8 57.6-32.3 16.6-64.4 25.8-90.3 27.3-12.9 0.7-24.2-0.5-33.1-3.5-8.9-3.1-15.3-8.1-18.8-14.8z"/>
		<path id="Layer" class="s0" d="m450.2 1771.9c-2.4-4.6-2.6-10.2-0.8-16.5 1.9-6.3 5.8-13.2 11.5-20.2 11.4-14.1 29.8-28.7 52.5-40.4 22.6-11.6 45.2-18.1 63.3-19.1 9.1-0.6 17 0.3 23.2 2.4 6.1 2.2 10.6 5.6 12.9 10.2 2.4 4.6 2.6 10.2 0.8 16.5-1.9 6.3-5.8 13.2-11.5 20.2-11.4 14.2-29.8 28.8-52.5 40.4-22.6 11.7-45.2 18.1-63.3 19.2-9.1 0.5-17-0.4-23.2-2.5-6.1-2.1-10.6-5.6-12.9-10.2z"/>
		<path id="Layer" class="s0" d="m-44.2 2921.6c-5.4-10.5-5.8-23-1.7-36.7 4.1-13.8 12.6-28.8 24.9-44.1 24.7-30.6 64.4-62.1 113.3-87.2 48.9-25.1 97.6-39.1 136.8-41.3 19.6-1.1 36.8 0.6 50.4 5.4 13.6 4.7 23.5 12.3 28.8 22.7 5.4 10.4 5.8 22.9 1.7 36.7-4.1 13.8-12.6 28.8-24.9 44.1-24.7 30.5-64.4 62-113.3 87.2-48.9 25.1-97.6 39-136.8 41.3-19.6 1.1-36.8-0.7-50.4-5.4-13.5-4.7-23.5-12.3-28.8-22.7z"/>
		<path id="Layer" class="s0" d="m1732.9 1361v1459.9c-85.9 63.9-221.7 84-77.7-347.2 143.9-431.3-2-450.6-93-406.4-175.7 65.9-502.8 135.7-405.5-112.4 97.3-248 424.7-499.3 576.2-593.9z"/>
		<path id="Layer" class="s0" d="m1732.9 1459.8v125.1c-62.8 35.8-206.8 106.6-280.5 103.9-73.7-2.7 156.3-153.8 280.5-229z"/>
		<path id="Layer" class="s1" d="m0.5 2054c-21.3 114.7-28.8 499 190.5 458 353-66 691 125 504.5 258.5-186.5 133.5-526 313-506.5 510.5 15.6 158-119.2 121.5-188.5 83.5z"/>
		<path id="Layer" class="s1" d="m589 2678c-30.5 50.5-430.5 253-457 380.5-26.5 127.5-22 224-83.5 213-49.2-8.8-52.8-60.7-48.5-85.5v-580.5c62.8 30.7 219.8 82.8 345 46 156.5-46 274.5-24 244 26.5z"/>
	</g>
	<path id="Layer" class="s2" d="m88.4 21l191.7 53.4-53.4 191.7-191.7-53.4z"/>
	<path id="Layer" class="s2" d="m1364.4 328.2l-155.2 43.2-43.2-155.2 155.2-43.2z"/>
	<path id="Layer" class="s2" d="m1108.6 501.4l-64.4-57.8 57.8-64.4 64.4 57.8z"/>
	<path id="Layer" class="s2" d="m1280.2 646.6l50.8 14.2-14.1 50.8-50.8-14.2z"/>
	<path id="Layer" class="s2" d="m1054.2 624l50.8 14.2-14.2 50.8-50.8-14.2z"/>
	<path id="Layer" class="s2" d="m1508.2 1071.2l-233.6-32.7 32.7-233.5 233.6 32.7z"/>
	<g id="Layer" style="opacity: .3">
		<path id="Layer" class="s0" d="m1741-1v691c1.7-40.1-40.8-112.1-224.1-79.2-229.2 41.1 39.3-392.7 11.1-455.9-28.4-63.8-501-52.9-580.2-79.2-63.5-21 9.8-59.9 54.3-76.7z"/>
		<path id="Layer" class="s0" d="m1738.2 546c18.1-131.6-55.9-104.5-95.1-74.5-49.5 39.8-146.6 88-138.6-38 7.9-126 159.1-300.2 233.7-371.5z"/>
		<path id="Layer" class="s0" d="m1658.4 399.4c-16.5 29.7-37.1 53.5-56.8 67.9-19.9 14.5-38.5 19.1-51.6 11.9-13.1-7.3-18.9-25.5-17.2-50.1 1.8-24.3 11.1-54.3 27.6-84.1 16.5-29.7 37-53.5 56.8-67.9 19.9-14.5 38.5-19.1 51.6-11.9 13 7.3 18.9 25.5 17.1 50.1-1.7 24.3-11 54.3-27.5 84.1z"/>
		<path id="Layer" class="s0" d="m1620.3 419c-9.9 17.8-22.1 32.1-34 40.6-11.9 8.7-22.8 11.3-30.3 7.2-7.6-4.2-11.1-14.9-10.1-29.6 1.1-14.5 6.7-32.5 16.6-50.3 9.9-17.9 22.2-32.1 34-40.7 11.9-8.7 22.8-11.3 30.3-7.1 7.6 4.2 11.1 14.8 10.1 29.5-1.1 14.6-6.7 32.5-16.6 50.4z"/>
		<path id="Layer" class="s0" d="m1065.5 37c-59.2 0-9-25.3 23.5-38h632c-33.8 47.7-113.4 134.4-161 100-59.5-43-420.5-62-494.5-62z"/>
		<path id="Layer" class="s3" d="m1002-8h727v9h-727z"/>
	</g>
</svg>